<svg xmlns="http://www.w3.org/2000/svg" class="pulse animated" viewBox="0 0 14.55 14.55" version="1.1" fill="#ffffff" height="100" width="100"><path d="m5.8129 1.1605c-0.21453 0.00212-0.42838 0.015253-0.64258 0.041016-0.57119 0.0687-1.1366 0.22157-1.6797 0.46289-2.1747 0.9663-3.5557 3.1564-3.4883 5.5352 0.064341 2.3762 1.5599 4.4858 3.7812 5.332 1.3137 0.50024 2.7292 0.49475 4.0059 0.05469l0.7989 0.799 5.9567-5.9569-1.763-1.7637-4.2015 4.1992c-0.00201 0.0019-0.00385 0.0039-0.00586 0.0059l-2.8652-2.8652-1.7481 1.748 2.1856 2.1877c-0.554 0.038-1.1204-0.04-1.6621-0.246h-0.00195c-1.482-0.56528-2.4727-1.9612-2.5156-3.5469v-0.00195c-0.045-1.5883 0.8686-3.0388 2.3203-3.6839 1.4501-0.6444 3.1386-0.3528 4.2871 0.7422l1.3555-1.4219c-1.129-1.0764-2.6155-1.6359-4.1172-1.6211z"/></svg>